# 3ds Max Wavefront OBJ Exporter v0.97b - (c)2007 guruware
# File Created: 09.05.2018 16:19:07

mtllib speedUp.mtl

#
# object pCube1
#

v  9.3338 0.5000 -9.5210
v  9.3338 0.5000 9.3210
v  10.0000 0.5000 9.3210
v  10.0000 0.5000 -9.5210
v  9.3338 -0.0000 9.3210
v  9.3338 0.0000 -9.5210
v  10.0000 0.0000 -9.5210
v  10.0000 -0.0000 9.3210
v  -10.0000 0.5000 -9.5210
v  -10.0000 0.0000 -9.5210
v  -10.0000 -0.0000 9.3210
v  -10.0000 0.5000 9.3210
v  -9.5338 0.5000 9.3210
v  -9.5338 -0.0000 9.3210
v  -9.5338 0.0000 -9.5210
v  -9.5338 0.5000 -9.5210
# 16 vertices

vn 0.0000 1.0000 0.0000
vn 0.0000 -1.0000 -0.0000
vn 1.0000 0.0000 -0.0000
vn -1.0000 0.0000 -0.0000
vn 0.0000 0.0000 -1.0000
vn -0.0000 -0.0000 1.0000
vn 0.0000 -0.0000 1.0000
vn 0.0000 0.0000 1.0000
# 8 vertex normals

vt 1.3000 1.0000 0.0000
vt 1.3000 -0.0000 0.0000
vt 1.5000 -0.0000 0.0000
vt 1.5000 1.0000 0.0000
vt 0.6000 0.9750 0.0000
vt 0.6000 0.7725 0.0000
vt 0.6250 0.7725 0.0000
vt 0.6250 0.9750 0.0000
vt 0.6500 0.2500 0.0000
vt 0.6500 0.0000 0.0000
vt 0.8525 0.0000 0.0000
vt 0.8525 0.2500 0.0000
vt 0.1475 0.2500 0.0000
vt 0.1475 0.0000 0.0000
vt 0.3500 0.0000 0.0000
vt 0.3500 0.2500 0.0000
vt 0.5773 0.6952 0.0000
vt 0.7172 0.3250 0.0000
vt 1.3850 0.0250 0.0000
vt 0.6225 0.0975 0.0000
vt 0.4535 0.2275 0.0000
vt 0.3997 0.8873 0.0000
vt 0.3975 0.9750 0.0000
vt 0.3975 0.7725 0.0000
vt 0.1905 0.0695 0.0000
vt -0.3783 0.9325 0.0000
vt 0.0000 1.0000 0.0000
vt 0.0000 -0.0000 0.0000
vt 1.0000 -0.0000 0.0000
vt 1.0000 1.0000 0.0000
vt 0.3750 0.9750 0.0000
vt 0.3750 0.7725 0.0000
vt -0.5000 1.0000 0.0000
vt -0.5000 -0.0000 0.0000
vt -0.3200 -0.0000 0.0000
vt -0.3200 1.0000 0.0000
# 36 texture coords

g pCube1
usemtl asfalto
s off
f 1/1/1 2/2/1 3/3/1 
f 3/3/1 4/4/1 1/1/1 
usemtl lambert1
f 5/5/2 6/6/2 7/7/2 
f 7/7/2 8/8/2 5/5/2 
f 3/9/3 8/10/3 7/11/3 
f 7/11/3 4/12/3 3/9/3 
f 9/13/4 10/14/4 11/15/4 
f 11/15/4 12/16/4 9/13/4 
f 7/7/5 6/17/5 1/18/5 
f 1/18/5 4/12/5 7/7/5 
f 3/3/6 2/19/6 5/20/6 
f 5/20/6 8/10/6 3/3/6 
f 5/20/6 2/19/6 13/21/7 
f 13/21/7 14/22/7 5/20/6 
f 14/23/2 15/24/2 6/6/2 
f 6/6/2 5/5/2 14/23/2 
f 1/18/5 6/17/5 15/25/5 
f 15/25/5 16/26/5 1/18/5 
usemtl speedUp
f 16/27/1 13/28/1 2/29/1 
f 2/29/1 1/30/1 16/27/1 
usemtl lambert1
f 14/22/7 13/21/7 12/16/8 
f 12/16/8 11/31/8 14/22/7 
f 10/32/2 15/24/2 14/23/2 
f 14/23/2 11/31/2 10/32/2 
f 16/26/5 15/25/5 10/14/5 
f 10/14/5 9/33/5 16/26/5 
usemtl asfalto
f 12/34/1 13/35/1 16/36/1 
f 16/36/1 9/33/1 12/34/1 
# 28 faces

