# 3ds Max Wavefront OBJ Exporter v0.97b - (c)2007 guruware
# File Created: 19.11.2018 20:19:26

mtllib ave_03.mtl

#
# object _pCube26
#

v  -2.0558 -3.1386 2.1848
v  2.1264 -3.1386 2.1848
v  -2.0558 -0.0545 2.1848
v  2.1264 -0.0545 2.1848
v  -2.0558 -0.0545 -3.2875
v  2.1264 -0.0545 -3.2875
v  -2.0558 0.7366 -5.0771
v  2.1264 0.7366 -5.0771
v  -2.0558 -3.1386 -3.8911
v  2.1264 -3.1386 -3.8911
v  -2.0558 -3.1386 -3.2875
v  2.1264 -3.1386 -3.2875
v  -1.4270 -0.1410 3.8764
v  1.2581 -0.1410 3.8764
v  -1.4270 2.5877 3.8764
v  1.2581 2.5877 3.8764
v  -1.4270 2.5877 0.8101
v  1.2581 2.5877 0.8101
v  -1.4270 -0.1410 0.8101
v  1.2581 -0.1410 0.8101
v  -0.7260 0.7424 5.0771
v  0.2740 0.7424 5.0771
v  -0.7260 1.3286 5.0771
v  0.2740 1.3286 5.0771
v  -0.7260 1.3286 3.5636
v  0.2740 1.3286 3.5636
v  -0.7260 0.7424 3.5636
v  0.2740 0.7424 3.5636
v  -0.4951 1.2744 4.4633
v  0.0432 1.2744 4.4633
v  -0.4951 1.5859 4.4633
v  0.0432 1.5859 4.4633
v  -0.4951 1.5859 3.8670
v  0.0432 1.5859 3.8670
v  -0.4951 1.2744 3.8670
v  0.0432 1.2744 3.8670
v  -3.5186 -1.7071 1.4625
v  3.5186 -1.7071 1.4625
v  -3.5186 -0.7071 1.4625
v  3.5186 -0.7071 1.4625
v  -3.5186 -0.7071 -2.0338
v  3.5186 -0.7071 -2.0338
v  -3.5186 -1.7071 -2.0338
v  3.5186 -1.7071 -2.0338
v  8.5186 -4.5877 1.4625
v  8.5186 -4.5877 -2.0338
v  8.5186 -3.5877 1.4625
v  8.5186 -3.5877 -2.0338
v  -8.5186 -4.5877 -2.0338
v  -8.5186 -4.5877 1.4625
v  -8.5186 -3.5877 -2.0338
v  -8.5186 -3.5877 1.4625
v  5.3186 -2.6487 1.4625
v  5.3186 -2.6487 -2.0338
v  5.3186 -1.6487 -2.0338
v  5.3186 -1.6487 1.4625
v  -5.3186 -2.6487 -2.0338
v  -5.3186 -2.6487 1.4625
v  -5.3186 -1.6487 1.4625
v  -5.3186 -1.6487 -2.0338
v  -1.0389 1.8584 4.0344
v  -0.5359 1.8584 4.0344
v  -1.0389 2.3614 4.0344
v  -0.5359 2.3614 4.0344
v  -1.0389 2.3614 3.0344
v  -0.5359 2.3614 3.0344
v  -1.0389 1.8584 3.0344
v  -0.5359 1.8584 3.0344
v  0.3393 1.8584 4.0344
v  0.8423 1.8584 4.0344
v  0.3393 2.3614 4.0344
v  0.8423 2.3614 4.0344
v  0.3393 2.3614 3.0344
v  0.8423 2.3614 3.0344
v  0.3393 1.8584 3.0344
v  0.8423 1.8584 3.0344
# 76 vertices

vn 0.0000 0.0000 1.0000
vn 0.5774 -0.5774 0.5774
vn 0.7071 0.0000 0.7071
vn -0.7071 0.7071 -0.0000
vn 0.0000 1.0000 -0.0000
vn -0.7567 0.6396 0.1351
vn 0.0000 0.9784 0.2066
vn -0.5488 0.6253 -0.5548
vn 0.5488 0.6253 -0.5548
vn -0.5946 -0.6464 -0.4782
vn 0.5946 -0.6464 -0.4782
vn -0.7071 -0.7071 -0.0000
vn 0.7071 -0.7071 -0.0000
vn 1.0000 0.0000 -0.0000
vn -0.5774 -0.5774 0.5774
vn -0.5774 0.5774 0.5774
vn 0.5774 0.5774 0.5774
vn -0.5774 0.5774 -0.5774
vn 0.5774 0.5774 -0.5774
vn -0.5774 -0.5774 -0.5774
vn 0.5774 -0.5774 -0.5774
vn 0.1537 -0.6255 0.7650
vn -0.1537 -0.6255 0.7650
vn -0.1799 0.7320 0.6571
vn 0.1799 0.7320 0.6571
vn -0.1799 0.7320 -0.6571
vn 0.1799 0.7320 -0.6571
vn 0.1537 -0.6255 -0.7650
vn -0.1537 -0.6255 -0.7650
vn 0.4086 -0.7254 0.5540
vn 0.4086 -0.7254 -0.5540
vn 0.5961 0.0000 0.8029
vn 0.5961 0.0000 -0.8029
vn -0.4086 -0.7254 -0.5540
vn -0.4086 -0.7254 0.5540
vn -0.6894 0.3883 -0.6115
vn -0.6894 0.3883 0.6115
vn -0.3437 -0.6097 0.7142
vn -0.3437 -0.6097 -0.7142
vn 0.2107 0.4027 -0.8908
vn 0.2107 0.4027 0.8908
vn 0.3437 -0.6097 -0.7142
vn 0.3437 -0.6097 0.7142
vn -0.3507 0.6220 0.7001
vn -0.3507 0.6220 -0.7001
vn 0.5182 0.8552 -0.0000
# 46 vertex normals

vt 0.3916 0.0662 0.0000
vt 0.6084 0.0662 0.0000
vt 0.3916 0.2831 0.0000
vt 0.6084 0.2831 0.0000
vt 0.3916 0.3916 0.0000
vt 0.6084 0.3916 0.0000
vt 0.3916 0.5000 0.0000
vt 0.6084 0.5000 0.0000
vt 0.3916 0.7169 0.0000
vt 0.6084 0.7169 0.0000
vt 0.3916 0.8253 0.0000
vt 0.6084 0.8253 0.0000
vt 0.3916 0.9338 0.0000
vt 0.6084 0.9338 0.0000
vt 0.7169 0.0662 0.0000
vt 0.7169 0.2831 0.0000
vt 0.2831 0.0662 0.0000
vt 0.2831 0.2831 0.0000
vt 0.1747 0.0662 0.0000
vt 0.1747 0.2831 0.0000
vt 0.8253 0.0662 0.0000
vt 0.8253 0.2831 0.0000
vt 0.0328 0.4349 0.0000
vt 0.3435 0.4349 0.0000
vt 0.0328 0.9051 0.0000
vt 0.3435 0.9051 0.0000
vt 0.1046 0.6255 0.0000
vt 0.2718 0.6255 0.0000
vt 0.1046 0.8108 0.0000
vt 0.2718 0.8108 0.0000
vt 0.4359 0.6891 0.0000
vt 0.4349 0.3116 0.0000
vt 0.4896 0.6889 0.0000
vt 0.4885 0.3115 0.0000
vt 0.4070 0.6652 0.0000
vt 0.4024 0.2815 0.0000
vt 0.5976 0.6629 0.0000
vt 0.5930 0.2792 0.0000
vt 0.6055 0.0430 0.0000
vt 0.6591 0.0428 0.0000
vt 0.6081 0.9568 0.0000
vt 0.6617 0.9566 0.0000
vt 0.4012 0.1833 0.0000
vt 0.5918 0.1810 0.0000
vt 0.5510 0.2148 0.0000
vt 0.4974 0.2149 0.0000
vt 0.5988 0.7611 0.0000
vt 0.4082 0.7634 0.0000
vt 0.5526 0.7853 0.0000
vt 0.4990 0.7855 0.0000
vt 0.3991 0.0089 0.0000
vt 0.5897 0.0066 0.0000
vt 0.6009 0.9356 0.0000
vt 0.4103 0.9379 0.0000
vt 0.7908 0.9802 0.0000
vt 0.7908 0.8285 0.0000
vt 0.9424 0.9803 0.0000
vt 0.9425 0.8286 0.0000
vt 0.7910 0.5646 0.0000
vt 0.7911 0.4129 0.0000
vt 0.9427 0.5647 0.0000
vt 0.9428 0.4130 0.0000
# 62 texture coords

g _pCube26
usemtl _03__03_03_03initialShadingGroup
s off
f 1/1/1 2/2/2 3/3/1 
f 3/3/1 2/2/2 4/4/3 
f 3/3/4 4/4/5 5/5/6 
f 5/5/6 4/4/5 6/6/7 
f 7/7/8 8/8/9 9/9/10 
f 9/9/10 8/8/9 10/10/11 
f 11/11/12 12/12/13 1/13/12 
f 1/13/12 12/12/13 2/14/2 
f 2/2/2 12/15/13 4/4/3 
f 4/4/3 12/15/13 6/16/14 
f 11/17/12 1/1/12 5/18/6 
f 5/18/6 1/1/12 3/3/4 
f 5/5/6 6/6/7 7/7/8 
f 7/7/8 6/6/7 8/8/9 
f 11/17/12 5/18/6 9/19/10 
f 9/19/10 5/18/6 7/20/8 
f 9/9/10 10/10/11 11/11/12 
f 11/11/12 10/10/11 12/12/13 
f 12/15/13 10/21/11 6/16/14 
f 6/16/14 10/21/11 8/22/9 
f 13/1/15 14/2/2 15/3/16 
f 15/3/16 14/2/2 16/4/17 
f 15/3/16 16/4/17 17/7/18 
f 17/7/18 16/4/17 18/8/19 
f 17/7/18 18/8/19 19/9/20 
f 19/9/20 18/8/19 20/10/21 
f 19/9/20 20/10/21 13/13/15 
f 13/13/15 20/10/21 14/14/2 
f 14/2/2 20/21/21 16/4/17 
f 16/4/17 20/21/21 18/22/19 
f 19/19/20 13/1/15 17/20/18 
f 17/20/18 13/1/15 15/3/16 
f 21/23/1 22/24/2 23/23/16 
f 23/23/16 22/24/2 24/24/17 
f 23/23/16 24/24/17 25/25/18 
f 25/25/18 24/24/17 26/26/19 
f 25/7/18 26/8/19 27/9/20 
f 27/9/20 26/8/19 28/10/21 
f 27/25/20 28/26/21 21/23/12 
f 21/23/12 28/26/21 22/24/2 
f 22/24/2 28/26/21 24/24/17 
f 24/24/17 28/26/21 26/26/19 
f 27/25/20 21/23/12 25/25/18 
f 25/25/18 21/23/12 23/23/16 
f 29/27/15 30/28/2 31/27/16 
f 31/27/16 30/28/2 32/28/17 
f 31/27/16 32/28/17 33/29/18 
f 33/29/18 32/28/17 34/30/19 
f 33/7/18 34/8/19 35/9/20 
f 35/9/20 34/8/19 36/10/21 
f 35/29/20 36/30/21 29/27/15 
f 29/27/15 36/30/21 30/28/2 
f 30/28/2 36/30/21 32/28/17 
f 32/28/17 36/30/21 34/30/19 
f 35/29/20 29/27/15 33/29/18 
f 33/29/18 29/27/15 31/27/16 
f 37/31/22 38/32/23 39/33/24 
f 39/33/24 38/32/23 40/34/25 
f 39/35/24 40/36/25 41/37/26 
f 41/37/26 40/36/25 42/38/27 
f 41/33/26 42/34/27 43/31/28 
f 43/31/28 42/34/27 44/32/29 
f 43/37/28 44/38/29 37/35/22 
f 37/35/22 44/38/29 38/36/23 
f 45/39/30 46/39/31 47/40/32 
f 47/40/32 46/39/31 48/40/33 
f 49/41/34 50/41/35 51/42/36 
f 51/42/36 50/41/35 52/42/37 
f 38/36/23 44/38/29 53/43/38 
f 53/43/38 44/38/29 54/44/39 
f 42/34/27 55/45/40 44/32/29 
f 44/32/29 55/45/40 54/46/39 
f 42/38/27 40/36/25 55/44/40 
f 55/44/40 40/36/25 56/43/41 
f 40/34/25 38/32/23 56/45/41 
f 56/45/41 38/32/23 53/46/38 
f 43/37/28 37/35/22 57/47/42 
f 57/47/42 37/35/22 58/48/43 
f 39/33/24 59/49/44 37/31/22 
f 37/31/22 59/49/44 58/50/43 
f 39/35/24 41/37/26 59/48/44 
f 59/48/44 41/37/26 60/47/45 
f 41/33/26 43/31/28 60/49/45 
f 60/49/45 43/31/28 57/50/42 
f 53/43/38 54/44/39 45/51/30 
f 45/51/30 54/44/39 46/52/31 
f 55/45/40 48/40/33 54/46/39 
f 54/46/39 48/40/33 46/39/31 
f 55/44/46 56/43/46 48/52/46 
f 48/52/46 56/43/46 47/51/46 
f 56/45/41 53/46/38 47/40/32 
f 47/40/32 53/46/38 45/39/30 
f 57/47/42 58/48/43 49/53/34 
f 49/53/34 58/48/43 50/54/35 
f 59/49/44 52/42/37 58/50/43 
f 58/50/43 52/42/37 50/41/35 
f 59/48/44 60/47/45 52/54/37 
f 52/54/37 60/47/45 51/53/36 
f 60/49/45 57/50/42 51/42/36 
f 51/42/36 57/50/42 49/41/34 
f 61/55/15 62/56/2 63/57/16 
f 63/57/16 62/56/2 64/58/17 
f 63/3/16 64/4/17 65/7/18 
f 65/7/18 64/4/17 66/8/19 
f 65/7/18 66/8/19 67/9/20 
f 67/9/20 66/8/19 68/10/21 
f 67/55/20 68/56/21 61/55/15 
f 61/55/15 68/56/21 62/56/2 
f 62/56/2 68/56/21 64/58/17 
f 64/58/17 68/56/21 66/58/19 
f 67/55/20 61/55/15 65/57/18 
f 65/57/18 61/55/15 63/57/16 
f 69/59/15 70/60/2 71/61/16 
f 71/61/16 70/60/2 72/62/17 
f 71/61/16 72/62/17 73/61/18 
f 73/61/18 72/62/17 74/62/19 
f 73/7/18 74/8/19 75/9/20 
f 75/9/20 74/8/19 76/10/21 
f 75/59/20 76/60/21 69/59/15 
f 69/59/15 76/60/21 70/60/2 
f 70/60/2 76/60/21 72/62/17 
f 72/62/17 76/60/21 74/62/19 
f 75/59/20 69/59/15 73/61/18 
f 73/61/18 69/59/15 71/61/16 
# 124 faces

