# 3ds Max Wavefront OBJ Exporter v0.97b - (c)2007 guruware
# File Created: 25.09.2018 17:49:49

mtllib item.mtl

#
# object pCube1
#

v  7.0711 0.0000 1.0461
v  0.0000 7.0711 1.0461
v  -7.0711 0.0000 1.0461
v  0.0000 -7.0711 1.0461
v  0.0000 7.0711 -1.0461
v  -7.0711 0.0000 -1.0461
v  7.0711 0.0000 -1.0461
v  0.0000 -7.0711 -1.0461
# 8 vertices

vn 0.0000 0.0000 1.0000
vn -0.7071 0.7071 -0.0000
vn 0.0000 0.0000 -1.0000
vn 0.7071 -0.7071 -0.0000
vn 0.7071 0.7071 -0.0000
vn -0.7071 -0.7071 -0.0000
# 6 vertex normals

vt 0.9484 0.7128 0.0000
vt 0.7069 0.9542 0.0000
vt 0.4655 0.7128 0.0000
vt 0.7069 0.4714 0.0000
vt 0.6250 0.2500 0.0000
vt 0.6250 0.5000 0.0000
vt 0.3750 0.5000 0.0000
vt 0.3750 0.2500 0.0000
vt 0.3747 0.2495 0.0000
vt 0.3747 0.4995 0.0000
vt 0.1247 0.4995 0.0000
vt 0.1247 0.2495 0.0000
vt 0.8750 0.0000 0.0000
vt 0.8750 0.2500 0.0000
vt 0.6250 0.0000 0.0000
vt 0.3750 0.0000 0.0000
vt 0.1250 0.2500 0.0000
vt 0.1250 0.0000 0.0000
# 18 texture coords

g pCube1
usemtl _itemlambert2SG
s off
f 1/1/1 2/2/1 3/3/1 
f 3/3/1 4/4/1 1/1/1 
f 2/5/2 5/6/2 6/7/2 
f 6/7/2 3/8/2 2/5/2 
f 5/2/3 7/1/3 8/4/3 
f 8/4/3 6/3/3 5/2/3 
f 7/9/4 1/10/4 4/11/4 
f 4/11/4 8/12/4 7/9/4 
f 7/13/5 5/14/5 2/5/5 
f 2/5/5 1/15/5 7/13/5 
f 4/16/6 3/8/6 6/17/6 
f 6/17/6 8/18/6 4/16/6 
# 12 faces

